Patient4_TMGait_0pt5_01_right_08_EMG.mot
version=1
nRows=36
nColumns=33
inDegrees=no
endheader
time	1LAddLong	2LGlutMax	3LGlutMed	4LIliopsoas	5LSemiMemb	6LBicFemLong	7LRecFem	8LVastMed	9LVastLat	10LGasMed	11LTibAnt	12lTibPost	13LPeroneusLong	14LSol	15LExtDigLong	16LFlexDigLong	17RAddLong	18RGlutMax	19RGlutMed	20RIliopsoas	21RSemiMemb	22RBicFemLong	23RRecFem	24RVastMed	25RVastLat	26RGasMed	27RTibAnt	28RTibPost	29RPeroneusLong	30RSol	31RExtDigLong	32RFlexDigLong
11.508	0.009155	-0.077667	0.005493	-0.003815	-0.005341	0.007172	0.10117	0.013885	0.056915	0.21439	-0.029907	0.16022	-0.42435	0.13626	-0.031891	0.003052	0.009308	-0.112	0.31158	-0.016327	-0.00946	0.010834	0.15625	-0.075378	-0.016785	-0.029297	-0.36316	-0.003357	-0.55588	0.1059	-0.005798	0.00061
11.509	0.019379	-0.085754	0.061493	0.002899	-0.011902	-0.031586	0.029144	0.007019	0.13611	0.04303	-0.020905	0.13367	-0.31738	-0.023346	0.062408	0.032501	0.021057	-0.14542	0.25192	-0.08667	-0.018768	0.014954	0.14786	-0.086212	-0.012665	-0.029297	0.16327	-0.001831	-0.39368	0.10864	-0.002136	0.008087
11.51	0.014648	-0.12772	0.10223	-0.014954	-0.014801	-0.048523	0.065308	0.00473	0.21118	-0.00061	-0.00885	-0.24414	-0.3241	-0.46677	0.065155	-0.033722	0.016479	-0.13168	0.13809	-0.11398	-0.018311	-0.003357	0.10925	-0.0914	-0.015869	-0.016327	0.65414	-0.001526	0.019073	0.004272	-0.00351	0.0177
11.511	0.002136	-0.08667	0.056763	0.02243	-0.009766	-0.049133	0.103	0.009613	0.059052	-0.12817	-0.015411	0.13412	-0.30029	-0.94894	0.012817	-0.041351	0.021362	-0.16937	0.1564	-0.079803	-0.032501	0.012817	0.13214	-0.10025	-0.011902	-0.012817	1.2169	0.002136	0.25879	-0.087891	-0.002747	0.015106
11.512	0.007782	-0.096283	0.045166	0.024567	-0.001373	-0.030212	0.005188	0.022888	-0.078888	-0.24933	-0.00946	0.14725	0.014343	-0.71945	-0.024719	-0.032654	0.015869	-0.10605	0.090485	0.034943	-0.036926	0.00061	0.17303	-0.094299	-0.011597	-0.019379	1.2343	-0.001068	0.11551	-0.16678	-0.005951	0.018768
11.513	0.018921	-0.065765	-0.023804	0.005188	0.026855	-0.023499	-0.06134	0.010986	-0.006714	-0.14694	-0.005798	-0.019684	0.21652	-0.49774	-0.026093	-0.019073	0.005341	-0.12268	0.18402	0.15427	-0.029907	0.004272	0.09903	-0.1207	-0.007935	-0.020142	0.35217	0.000763	0.29388	-0.16571	-0.003662	0.016022
11.514	0.020294	-0.076447	-0.067902	-0.004578	0.036926	0.067139	0.10757	-0.004578	0.11856	0.083771	0.001678	-0.22385	0.22507	0.11368	-0.022278	0.035858	0.005798	-0.12558	-0.011902	0.22232	-0.061798	0.006714	0.089722	-0.1088	-0.005493	-0.036316	-0.76996	-0.002747	0.13336	-0.055542	-0.006104	0.016785
11.515	0.006256	-0.076141	-0.08667	-0.003662	0.020599	0.082703	0.26215	-0.005951	0.076752	0.31281	0.000763	-0.063171	0.2739	0.28809	0.025787	0.1091	0.013275	-0.12146	-0.011139	0.077667	-0.12604	-0.006714	0.050354	-0.12558	0.009155	-0.047302	-0.81863	-0.001526	-0.18829	-0.028534	-0.004272	0.008545
11.516	-0.003052	-0.083923	-0.10864	0.005798	0.014038	0.12985	0.30121	0.003662	0.053101	0.29694	-0.010529	0.008087	0.24536	0.14786	0.020447	0.033112	0.044098	-0.082855	0.029755	-0.005951	-0.15915	-0.008392	0.13412	-0.10208	-0.012054	-0.052948	-0.2005	0.000458	-0.45059	0.07843	-0.005951	0.012665
11.517	0.006104	-0.11017	-0.068817	-0.003662	0.010223	0.090637	0.28061	-0.010223	0.031281	0.073853	-0.005035	0.12756	0.20874	0.17853	0.023956	-0.010223	0.060272	-0.12848	0.049286	0.040894	-0.12436	0.022125	0.10513	-0.10712	-0.005341	-0.057373	0.007629	-0.000763	-0.39291	0.12695	-0.005493	0.008392
11.518	0.009308	-0.12634	-0.091095	0.001678	0.005951	0.037994	0.066223	-0.007477	0.008698	-0.039825	-0.000763	0.3009	0.17197	0.061646	0.003815	-0.007019	0.053101	-0.11307	0.091248	0.005341	0.046692	0.053101	0.10147	-0.09201	0.006561	-0.05188	0.094452	-0.000763	0.31097	0.03479	-0.003357	0.003357
11.519	0.010529	-0.11063	-0.074921	0.013428	0.010681	-0.035706	-0.032196	0.005188	0.089111	-0.048828	0.000763	-0.036774	0.06424	0.003204	0.015564	-0.003815	0.05188	-0.13382	0.067596	-0.069122	0.069427	0.087433	0.08255	-0.054932	-0.005951	-0.059052	0.19241	-0.002441	0.35843	-0.015717	-0.005798	0.007019
11.52	0.004578	-0.097656	-0.004578	0.019073	0.010834	0.009766	-0.004425	0.014801	0.11093	0.032654	0.01236	-0.044098	-0.062561	-0.11414	-0.002899	-0.006714	0.10895	-0.12772	0.051117	-0.021973	0.13534	0.034027	0.10284	-0.044708	-0.011597	-0.061951	0.20264	-0.002899	0.20142	-0.007019	-0.007019	0.003815
11.521	0.008698	-0.097504	0.011902	0.008087	0.016479	-0.097504	0.02594	-0.006714	0.075378	0.009003	0.006409	-0.061188	-0.099335	-0.10086	-0.018158	0.001526	0.11566	-0.11154	0.034332	0.059662	0.051727	-0.01297	0.10696	-0.079346	-0.005951	-0.065765	-0.027313	-0.002899	0.22629	-0.098724	-0.004272	0.009918
11.522	0.002747	-0.12573	-0.003204	0.015259	0.020294	-0.086517	0.11505	-0.004883	0.073395	-0.025787	0.004578	-0.055695	0.12192	-0.16251	0.001678	-0.011749	0.072327	-0.11246	-0.12329	0.021667	0.014801	-0.020447	0.098419	-0.10452	-0.008392	-0.069275	-0.037231	-0.003662	-0.11337	-0.067291	-0.005341	0.007935
11.523	0.001526	-0.089264	-0.019379	-0.006256	0.034485	-0.037537	0.092316	0.00412	0.066071	-0.036469	-0.005798	-0.049438	0.50537	-0.12375	0.001984	-0.016785	0.047455	-0.13153	-0.038452	0.007782	0.017242	-0.032349	0.14221	-0.12268	-0.024414	-0.071411	0.12604	-0.00473	-0.10468	-0.11734	-0.001221	0.007172
11.524	-0.011597	-0.14496	-0.098114	0.011902	0.035248	0.041809	0.10941	0.002289	0.033264	-0.030365	0.001068	-0.049438	0.20905	-0.013428	0.030212	-0.021515	-0.003967	-0.16998	-0.015717	-0.033569	-0.011292	-0.001984	0.080566	-0.088654	-0.018768	-0.054016	-0.059662	-0.003357	0.2066	-0.090332	-0.006104	0.015411
11.525	-0.002136	-0.15869	-0.19821	0.004272	0.027161	0.15762	0.10956	-0.032806	0.030823	-0.031891	-0.002594	-0.03952	-0.20126	0.15564	0.018921	-0.002136	-0.008545	-0.11856	-0.093536	-0.034943	-0.040283	0.018768	0.06012	-0.074615	-0.000153	-0.028992	-0.09491	-0.003815	0.24689	0.022278	-0.009766	0.019226
11.526	0.00061	-0.16068	-0.19211	0.006714	0.009308	0.18158	0.103	-0.005951	0.039215	-0.02533	0.002289	-0.034637	-0.093842	0.31387	-0.00946	-0.009613	-0.038757	-0.11581	0.068359	-0.01709	-0.054321	0.027008	0.037079	-0.13062	-0.011444	0	0.11154	-0.009613	0.10757	0.13153	-0.002594	0.015869
11.527	-0.006866	-0.10895	-0.085907	-0.018005	-0.049896	0.22308	0.095062	0.012207	0.046997	-0.014801	0.036621	-0.035248	0.15396	0.36163	0.034485	-0.010071	-0.038757	-0.10056	0.075073	0	0.005798	-0.000916	0.049744	-0.042572	-0.000763	0.0354	0.31082	-0.008392	0.023499	0.14923	0.00061	0.013885
11.528	-0.015259	-0.16068	0.010223	-0.010071	-0.087738	0.13901	0.10574	0.012054	0.046082	-0.007935	0.065765	-0.031433	0.084534	0.20218	0.024261	-0.002747	-0.000153	-0.075073	-0.042725	-0.024872	0.01709	0.017548	0.058136	-0.075531	-0.000153	0.076599	-0.20599	-0.004272	-0.055847	0.069122	-0.004578	0.015411
11.529	-0.005035	-0.1619	0.075226	0.039368	-0.079803	-0.021057	0.098724	0.009003	0.046539	-0.043793	0.047302	-0.038452	0.29999	0.21652	0.079193	0.006714	-0.014496	-0.09201	0.30838	-0.19333	-0.013885	0.040894	0.046234	-0.045929	0.008698	0.10742	-0.63965	-0.003357	-0.1088	-0.016174	-0.000458	0.014648
11.53	-0.031891	-0.1355	0.059509	0.026093	-0.042419	-0.098267	0.067291	0.00412	0.039368	-0.05188	0.014801	-0.032349	0.16342	0.13046	-0.010376	0.005341	-0.016174	-0.098724	0.60638	-0.2478	-0.055695	0.058594	0.024872	-0.026855	0.003204	0.13519	-0.16571	-0.005493	0.031738	-0.1088	-0.003967	0.014801
11.531	0.022125	-0.13687	-0.051575	-0.009766	-0.024872	-0.14313	0.094604	0.003357	0.024567	-0.025024	-0.022583	-0.028992	-0.29587	0.099335	-0.14008	0.00412	-0.011139	-0.10803	0.39932	-0.097046	-0.045013	0.011597	0.066986	-0.016785	-0.017242	0.13733	0.21271	-0.006256	-0.045471	-0.1152	-0.003662	0.015259
11.532	0.05249	-0.11047	-0.077209	-0.010681	0.017853	-0.19394	0.092926	0.010071	0.007782	-0.00885	0.013428	-0.024109	-0.29526	0.060577	-0.24826	0.013733	0.001678	-0.12756	0.10468	0.1384	-0.028992	-0.023651	0.058899	-0.062714	-0.0177	0.1181	0.24887	-0.005646	-0.20371	-0.037079	-0.001526	0.005341
11.533	0.012207	-0.080261	-0.06546	-0.014648	0.019836	-0.11536	0.11414	0.009308	0.012054	-0.053558	0.014343	-0.029297	-0.22308	0.089874	-0.16876	0.007782	0.007629	-0.085449	-0.11795	0.39627	0.014191	-0.042114	0.073547	-0.080414	-0.007629	0.098114	0.19363	-0.007935	-0.1619	-0.024719	-0.002441	0.010681
11.534	0.023041	-0.11261	-0.059052	-0.019379	0.012054	-0.27741	0.12436	0.001068	0.011902	-0.084534	-0.02243	-0.018921	-0.050659	0.085754	-0.06073	0.010529	-0.002136	-0.15213	-0.011902	0.2626	-0.001373	-0.01709	0.075073	-0.10941	-0.020142	0.072327	0.072632	-0.007782	-0.11581	-0.017548	-0.003815	0.008545
11.535	0.016632	-0.18845	-0.16693	0.006561	0.019684	-0.079803	0.11688	-0.006104	-0.001526	-0.095825	-0.032654	-0.023804	0.3006	0.03952	0.028534	0.014343	-0.042725	-0.13809	0.29327	0.016632	0.020752	0.0354	0.082703	-0.076447	-0.007324	0.054474	0.26276	-0.007019	-0.095978	-0.019226	-0.002441	-0.001678
11.536	0.020599	-0.13382	-0.085602	-0.000458	0.11719	0.15243	0.18097	0.002899	-0.004272	-0.12116	0.001221	-0.016327	-0.069275	0.031891	0.059204	0.023041	-0.059052	-0.12833	0.17517	-0.10513	-0.067291	0.089722	0.085297	-0.063477	-0.010071	0.026245	0.3685	-0.010986	-0.10605	-0.004883	-0.00061	0.000916
11.537	0.012665	-0.15671	-0.079803	-0.001831	0.12238	0.22492	0.18326	0.001831	-0.024719	-0.15137	0.023956	-0.020599	-0.026855	0.017548	0.071259	0.023956	-0.049286	-0.15121	-0.02243	-0.10696	-0.11902	0.11734	0.11063	-0.079498	-0.017395	0.012207	0.44983	-0.01358	-0.13718	0.007324	-0.001526	0.00412
11.538	0.006409	-0.18768	0.068359	0.003052	0.063019	0.15549	0.14435	0.01236	-0.061188	-0.14938	0.009918	-0.021515	0.072479	0.051117	0.14557	0.012512	-0.035248	-0.1593	0.098114	0.074921	0.10986	0.029602	0.046387	0.001373	-0.000153	0.002136	0.52155	-0.009308	-0.13809	-0.002441	-0.003967	0.003967
11.539	0.014343	-0.18158	0.14206	-0.005493	0.036621	-0.07782	0.10895	0.005798	-0.051117	-0.15747	-0.006561	-0.006561	0.040894	-0.002289	0.15472	-0.002136	-0.000916	-0.15884	-0.014343	0.22598	0.092926	-0.0354	0.061188	-0.016937	-0.000763	-0.000916	0.32181	-0.010681	-0.10315	-0.042114	-0.002289	-0.004578
11.54	0.01709	-0.14481	0.054321	-0.001373	0.026855	-0.13992	0.071716	0.013885	-0.01709	-0.097656	-0.008392	-0.027771	-0.097656	-0.11749	0.14481	-0.000305	0.030365	-0.16144	-0.21103	0.11063	0.026855	-0.036469	0.085754	-0.058746	-0.005798	-0.011597	-0.015106	-0.01236	0.019684	-0.036926	-0.006256	-0.000458
11.541	0.015411	-0.1622	-0.016022	0.009766	0.041656	-0.1088	0.053406	0.012817	-0.017853	-0.011902	-0.016937	-0.020599	0.0354	-0.040894	0.077209	0.019073	0.067444	-0.17456	-0.11612	0.007782	0.019836	-0.10956	0.11444	-0.069733	-0.013428	-0.018311	-0.23804	-0.010834	0.028839	-0.040741	-0.003967	-0.000458
11.542	0.01358	-0.11948	-0.10391	0.014801	0.048981	-0.052948	0.04364	0.021057	0.005646	0.068665	-0.009918	-0.030365	0.15686	0.12177	0.014038	0.009308	0.097198	-0.11551	-0.121	0.027466	-0.042419	-0.09491	0.10208	-0.098114	-0.025024	-0.015869	-0.4306	-0.010681	-0.019989	0.02655	-0.003815	-0.00061
11.543	0.008545	-0.11978	-0.15686	-0.002899	0.050354	0.006256	0.036774	0.015717	-0.10056	0.23377	0.001831	-0.014191	0.13794	0.081787	-0.072479	-0.013123	0.1152	-0.12146	0.055084	0.057373	-0.12512	-0.019989	0.097351	-0.1297	-0.023499	-0.020447	-0.40832	-0.011902	-0.06485	0.018921	-0.004272	0.002289
